<svg xmlns="http://www.w3.org/2000/svg" xmlns:xlink="http://www.w3.org/1999/xlink" xmlns:lucid="lucid" width="1670" height="385"><g transform="translate(-46 -444)" lucid:page-tab-id="0_0"><path d="M340.5 616.72H704" stroke="#666" fill="none"/><path d="M340.5 617.22h-.5v-1h.5z" fill="#666"/><path d="M718.78 616.72l-14.27 4.63v-9.27z" stroke="#666" fill="#666"/><path d="M40 440h1680v391.02H40z" stroke="#232f3e" stroke-width="2" fill-opacity="0"/><path d="M40 440h56v56H40v-56z" stroke="#fff" stroke-opacity="0" fill="#232f3e"/><path d="M58.22 465.87c-.04.48.05.87.17 1.34.1.4.28.7.48 1.07.04.1.08.22.08.34 0 .2-.12.36-.28.46l-.95.62c-.12.08-.25.13-.37.13-.16 0-.33-.06-.45-.2-.2-.2-.36-.43-.52-.7-.17-.25-.3-.53-.46-.86-1.1 1.37-2.62 2.1-4.4 2.06-1.14.06-2.12-.3-2.95-1.08-.78-.8-1.15-1.76-1.1-2.85-.05-1.23.4-2.28 1.35-3.08 1.07-.85 2.3-1.23 3.66-1.16.57 0 1.02.02 1.6.1.57.1 1.1.2 1.72.33v-1.1c.08-.88-.16-1.67-.7-2.37-.74-.56-1.56-.8-2.46-.7-.53 0-1.03.07-1.6.2-.58.13-1.03.3-1.6.5l-.5.2h-.24c-.2 0-.33-.16-.33-.45v-.75c0-.18.04-.34.12-.5.12-.16.24-.26.4-.33.66-.3 1.2-.5 1.9-.67.77-.2 1.47-.3 2.3-.28 1.47-.13 2.78.26 3.9 1.2.94 1.05 1.35 2.28 1.22 3.67zm-6.07 2.28c.57 0 1.06-.1 1.6-.28.57-.2 1.02-.5 1.44-.96.23-.27.4-.56.48-.93.12-.45.16-.84.16-1.3V464c-.53-.1-.94-.17-1.43-.2H53c-.8-.08-1.55.12-2.2.58-.54.45-.8 1.04-.75 1.73-.04.6.13 1.16.54 1.6.44.38.97.52 1.55.45zm12 1.6c-.22 0-.42-.03-.6-.15-.15-.17-.23-.36-.32-.6l-3.5-11.5-.1-.62c0-.24.1-.37.36-.37h1.47c.2 0 .37.04.57.15.17.18.25.37.3.6l2.5 9.96 2.38-9.93c0-.24.08-.44.28-.6.17-.12.37-.16.58-.15h1.2c.24 0 .4.03.6.15.17.18.25.36.3.6l2.33 9.94 2.56-10c.04-.2.16-.4.33-.58.15-.1.36-.17.56-.14h1.4c.16 0 .33.1.37.3v.31s0 .2-.12.35L74 468.98c-.05.22-.13.42-.3.6-.2.1-.36.14-.57.13h-1.27c-.25.04-.45-.02-.62-.15-.16-.16-.25-.36-.3-.6l-2.3-9.6-2.3 9.6c-.03.24-.1.44-.27.6-.2.13-.4.2-.62.16zm19.2.38c-.82 0-1.5-.07-2.3-.25-.65-.13-1.14-.3-1.72-.6-.2-.1-.37-.23-.45-.42-.08-.14-.12-.28-.12-.43v-.75c0-.3.12-.46.32-.46h.3l.36.16c.58.23 1.03.4 1.6.5.62.14 1.15.2 1.8.2.8.05 1.5-.1 2.2-.5.48-.3.77-.8.72-1.4.05-.4-.12-.76-.36-1.04-.46-.4-.95-.65-1.52-.8l-2.18-.68c-.94-.25-1.73-.73-2.38-1.5-.5-.65-.74-1.35-.74-2.18 0-.6.12-1.08.4-1.6.3-.5.63-.9 1.08-1.22.5-.38.98-.6 1.6-.78.66-.18 1.2-.26 1.9-.25.32-.03.6-.03.97 0l1 .16.8.22.67.26c.16.1.28.22.45.38.08.15.12.3.12.5v.7c0 .32-.12.47-.37.47-.2-.03-.37-.08-.57-.18-.95-.42-1.8-.6-2.88-.58-.7-.04-1.3.1-1.97.4-.5.3-.74.8-.7 1.36 0 .4.13.76.46 1.05.5.4.98.65 1.6.82l2.1.67c.94.24 1.67.7 2.3 1.44.48.64.7 1.3.7 2.1 0 .63-.13 1.17-.38 1.73-.3.55-.62.95-1.1 1.32-.5.4-1 .66-1.6.84-.75.23-1.4.33-2.15.34zM86.1 477.48c-5.6 3.82-11.36 5.58-18.15 5.56-8.54.05-15.82-2.74-22.16-8.45-.5-.42 0-1 .48-.68 7.07 4.05 14.03 5.9 22.2 5.9 6.1-.04 11.3-1.1 16.93-3.47.83-.35 1.52.55.7 1.13z" stroke="#fff" stroke-opacity="0" fill="#fff"/><path d="M88.16 475.2c-.64-.82-4.16-.38-5.75-.2-.46 0-.53-.36-.1-.66 2.8-1.98 7.42-1.4 8-.74.6.67-.14 5.28-2.78 7.5-.4.32-.78.13-.6-.3.54-1.52 1.86-4.83 1.24-5.6z" stroke="#fff" stroke-opacity="0" fill="#fff"/><use xlink:href="#a" transform="matrix(1,0,0,1,111,460) translate(0 14.222222222222223)"/><use xlink:href="#b" transform="matrix(1,0,0,1,111,460) translate(45.333333333333336 14.222222222222223)"/><path d="M842.16 670h-24.74c-1.24 0-2.4-.72-2.9-1.86l-34.65-74.3H765.9c-1.75 0-3.24-1.45-3.24-3.22V569.2c0-1.78 1.5-3.24 3.23-3.24h30.84c1.33 0 2.4.73 2.9 1.87l34.58 74.3h7.94c1.73 0 3.22 1.45 3.22 3.33v21.33c0 1.76-1.5 3.2-3.22 3.2zm-22.75-6.54h19.45v-14.78h-6.7c-1.24 0-2.4-.73-2.9-1.87l-34.5-74.4H769.2v14.9h12.74c1.32 0 2.48.72 2.97 1.86z" stroke="#fff" stroke-opacity="0" fill="#d86613"/><path d="M775.04 670h-26.42c-1.75 0-3.22-1.47-3.22-3.27 0-.5.1-.9.34-1.35l27.6-57.82c.56-1.16 1.65-1.87 2.93-1.87 1.28 0 2.37.64 2.93 1.8l13.2 27.33c.44.9.44 1.87 0 2.77l-14.43 30.55c-.57 1.15-1.65 1.86-2.93 1.86zm-21.2-6.48h19.1l13.03-27.27-9.75-19.8z" stroke="#fff" stroke-opacity="0" fill="#d86613"/><path d="M796.4 700.5c-42.17 0-76.4-34.22-76.4-76.4 0-42.18 34.23-76.4 76.4-76.4 42.2 0 76.43 34.22 76.43 76.4 0 42.18-34.24 76.4-76.42 76.4zm0-146.24c-38.65 0-69.83 31.17-69.83 69.84 0 38.66 31.18 69.84 69.84 69.84 38.68 0 69.85-31.18 69.85-69.84 0-38.67-31.17-69.84-69.84-69.84z" stroke="#fff" stroke-opacity="0" fill="#d86613"/><use xlink:href="#c" transform="matrix(1,0,0,1,690,709.5120635127395) translate(37.07499999999999 14.4)"/><use xlink:href="#d" transform="matrix(1,0,0,1,690,709.5120635127395) translate(107.02499999999999 14.4)"/><path d="M180 536.72h160v160H180v-160z" stroke="#000" stroke-opacity="0" fill="#cd2264"/><path d="M226.74 651.35c5.45-3.46 7.3-10.5 4.4-16.35-3.24-6.1-10.88-8.6-17.03-5.38l-7.4-12.77 12.28-21.38-3.7-2.14-12.87 22.32c-.45.72-.45 1.44 0 2.15l8.24 14.33c-2.32 2.5-3.48 5.37-3.48 8.72 0 6.92 5.56 12.65 12.52 12.65 1.15 0 2.08-.12 3.12-.35l6.73 11.7c.46.7 1.15 1.07 1.85 1.07h26.53v-4.18h-25.25zm-7.06-2.03c-4.52 0-8.35-3.82-8.35-8.35 0-4.66 3.83-8.36 8.35-8.36 4.63 0 8.34 3.7 8.34 8.37 0 4.53-3.7 8.24-8.34 8.24zm97.9-33.67l-8.1-14.1c4.75-3.45 6.5-9.54 4.05-15.03-2.66-6.33-10.08-9.3-16.45-6.57l-6.6-11.46c-.47-.6-1.16-1.1-1.86-1.1H262.1v4.3h25.25l6.14 10.64c-3.72 3.46-5.1 8.36-3.6 13.13 2.08 6.7 9.15 10.4 15.87 8.24l7.53 13.03-10.66 18.4 3.7 2.14 11.25-19.47c.45-.7.45-1.43 0-2.15zm-15.52-15.76c-4.63 0-8.34-3.83-8.34-8.37 0-4.65 3.7-8.35 8.34-8.35 4.52 0 8.23 3.7 8.23 8.35 0 4.54-3.72 8.36-8.24 8.36zm-12.86 51.34c-1.62 0-3 .23-4.52.83l-9.04-15.28-.46.23 11.12-19.1c.47-.72.47-1.56 0-2.16l-12.16-21.5c-.47-.6-1.16-1.06-1.86-1.06H249.8l-8.22-14.08c2.9-2.4 4.4-5.74 4.4-9.56 0-6.92-5.68-12.53-12.63-12.53-6.95 0-12.52 5.6-12.52 12.65 0 6.93 5.68 12.54 12.63 12.54 1.63 0 3.02-.24 4.52-.84l7.65 13.02-12.17 21.25c-.46.72-.46 1.44 0 2.15l12.3 21.38c.45.6 1.03.95 1.84.95h24.68c.12.12.35.12.47 0l8.34 14.2c-2.9 2.52-4.3 5.74-4.3 9.56 0 6.92 5.56 12.53 12.52 12.53 6.95 0 12.63-5.6 12.63-12.66-.12-6.92-5.68-12.53-12.63-12.42zm-55.74-73.32c-4.63 0-8.34-3.82-8.22-8.36 0-4.65 3.82-8.35 8.34-8.35 4.64.13 8.34 3.83 8.34 8.36-.1 4.66-3.82 8.36-8.46 8.36zM271 635.95H248.9l-11.13-19.22 11.13-19.23H271l11.13 19.23zm18.32 36.18c-4.64 0-8.35-3.7-8.35-8.24 0-4.66 3.7-8.37 8.35-8.37 4.63 0 8.34 3.7 8.34 8.36 0 4.53-3.7 8.23-8.34 8.23z" stroke="#000" stroke-opacity="0" fill="#fff"/><use xlink:href="#e" transform="matrix(1,0,0,1,150,705.7173573983647) translate(25.57499999999999 14.4)"/><use xlink:href="#f" transform="matrix(1,0,0,1,150,705.7173573983647) translate(96.52499999999999 14.4)"/><path d="M1514.74 571.23L1480 618.96l34.74 47.73 27.77-6.12 1.35-82.86-29.1-6.5z" fill="#876929"/><path d="M1553.5 658.1l-38.77 8.6v-95.47l38.78 8.6v78.27z" fill="#d9a741"/><path d="M1548.9 587.62l4.6 107.83 73.34-31.64v-80.56l-18.7 2.7-59.24 1.68z" fill="#876929"/><path d="M1576.9 608.9l22.86-1.15 22.6-35.4-57.15-24.66-21.35 8.07 33.06 53.14z" fill="#876929"/><path d="M1565.2 547.7l57.16 24.67-22.58 35.37-34.6-60.05z" fill="#d9a741"/><path d="M1553.5 557.9l46.3 72.36 7.9 41.8-54.2 23.4-21.93-9.5V565.48l21.93-7.57z" fill="#876929"/><path d="M1626.84 583.22v80.6l-73.3 31.63V557.9l46.25 72.36 27.04-47.04z" fill="#d9a741"/><use xlink:href="#e" transform="matrix(1,0,0,1,1480,695.4673573983647) translate(20.025 14.4)"/><use xlink:href="#g" transform="matrix(1,0,0,1,1480,695.4673573983647) translate(90.975 14.4)"/><path d="M1248.08 624.1h219.28" stroke="#333" fill="none"/><path d="M1248.1 624.6h-.55l.05-1h.5z" fill="#333"/><path d="M1482.12 624.1l-14.26 4.63v-9.27z" stroke="#333" fill="#333"/><path d="M873.33 624.1h182.4" stroke="#333" fill="none"/><path d="M873.34 624.6h-.53l.03-.53-.02-.47h.54z" fill="#333"/><path d="M1070.5 624.1l-14.28 4.63v-9.27z" stroke="#333" fill="#333"/><path d="M1155.3 500.68c2.5-3.64 6.58-3.64 9.1 0l80.9 116.84c2.5 3.63 2.5 9.52 0 13.16l-80.9 116.84c-2.52 3.63-6.6 3.63-9.1 0l-80.9-116.84c-2.52-3.64-2.52-9.53 0-13.16z" stroke="#333" fill="#fff"/><path d="M1073.27 597.7h173.14v60h-173.13z" fill="none"/><use xlink:href="#h" transform="matrix(1,0,0,1,1078.266684033174,602.6855898757047) translate(4.099999999999994 17.799999999999997)"/><use xlink:href="#i" transform="matrix(1,0,0,1,1078.266684033174,602.6855898757047) translate(23.099999999999994 17.799999999999997)"/><use xlink:href="#j" transform="matrix(1,0,0,1,1078.266684033174,602.6855898757047) translate(89.05 17.799999999999997)"/><use xlink:href="#k" transform="matrix(1,0,0,1,1078.266684033174,602.6855898757047) translate(8.349999999999994 39.4)"/><use xlink:href="#l" transform="matrix(1,0,0,1,1078.266684033174,602.6855898757047) translate(34.3 39.4)"/><use xlink:href="#m" transform="matrix(1,0,0,1,1078.266684033174,602.6855898757047) translate(69.8 39.4)"/><use xlink:href="#n" transform="matrix(1,0,0,1,1078.266684033174,602.6855898757047) translate(88.75 39.4)"/><path d="M420 635.4h173.15v69.2H420z" fill="none"/><g><use xlink:href="#o" transform="matrix(1,0,0,1,425,640.4) translate(33.38611111111112 20.133333333333333)"/><use xlink:href="#p" transform="matrix(1,0,0,1,425,640.4) translate(103.20648148148148 20.133333333333333)"/><use xlink:href="#q" transform="matrix(1,0,0,1,425,640.4) translate(38.901851851851866 49.73333333333333)"/></g><path d="M1270.6 635.4h173.15v60H1270.6z" fill="none"/><g><use xlink:href="#r" transform="matrix(1,0,0,1,1275.6034472146566,640.4) translate(61.88981481481482 29.933333333333334)"/></g><defs><path fill="#666" d="M199 0l-22-63H83L61 0H9l90-248h61L250 0h-51zm-33-102l-36-108c-10 38-24 72-36 108h72" id="s"/><path fill="#666" d="M275 0h-61l-44-196L126 0H64L0-248h53L97-49l45-199h58l43 199 44-199h52" id="t"/><path fill="#666" d="M169-182c-1-43-94-46-97-3 18 66 151 10 154 114 3 95-165 93-204 36-6-8-10-19-12-30l50-8c3 46 112 56 116 5-17-69-150-10-154-114-4-87 153-88 188-35 5 8 8 18 10 28" id="u"/><g id="a"><use transform="matrix(0.04938271604938272,0,0,0.04938271604938272,0,0)" xlink:href="#s"/><use transform="matrix(0.04938271604938272,0,0,0.04938271604938272,11.80246913580247,0)" xlink:href="#t"/><use transform="matrix(0.04938271604938272,0,0,0.04938271604938272,28.543209876543205,0)" xlink:href="#u"/></g><path fill="#666" d="M67-125c0 53 21 87 73 88 37 1 54-22 65-47l45 17C233-25 199 4 140 4 58 4 20-42 15-125 8-235 124-281 211-232c18 10 29 29 36 50l-46 12c-8-25-30-41-62-41-52 0-71 34-72 86" id="v"/><path fill="#666" d="M25 0v-261h50V0H25" id="w"/><path fill="#666" d="M110-194c64 0 96 36 96 99 0 64-35 99-97 99-61 0-95-36-95-99 0-62 34-99 96-99zm-1 164c35 0 45-28 45-65 0-40-10-65-43-65-34 0-45 26-45 65 0 36 10 65 43 65" id="x"/><path fill="#666" d="M85 4C-2 5 27-109 22-190h50c7 57-23 150 33 157 60-5 35-97 40-157h50l1 190h-47c-2-12 1-28-3-38-12 25-28 42-61 42" id="y"/><path fill="#666" d="M88-194c31-1 46 15 58 34l-1-101h50l1 261h-48c-2-10 0-23-3-31C134-8 116 4 84 4 32 4 16-41 15-95c0-56 19-97 73-99zm17 164c33 0 40-30 41-66 1-37-9-64-41-64s-38 30-39 65c0 43 13 65 39 65" id="z"/><g id="b"><use transform="matrix(0.04938271604938272,0,0,0.04938271604938272,0,0)" xlink:href="#v"/><use transform="matrix(0.04938271604938272,0,0,0.04938271604938272,12.790123456790125,0)" xlink:href="#w"/><use transform="matrix(0.04938271604938272,0,0,0.04938271604938272,17.7283950617284,0)" xlink:href="#x"/><use transform="matrix(0.04938271604938272,0,0,0.04938271604938272,28.54320987654322,0)" xlink:href="#y"/><use transform="matrix(0.04938271604938272,0,0,0.04938271604938272,39.35802469135803,0)" xlink:href="#z"/></g><path fill="#333" d="M30 0v-248h33v221h125V0H30" id="A"/><path fill="#333" d="M141-36C126-15 110 5 73 4 37 3 15-17 15-53c-1-64 63-63 125-63 3-35-9-54-41-54-24 1-41 7-42 31l-33-3c5-37 33-52 76-52 45 0 72 20 72 64v82c-1 20 7 32 28 27v20c-31 9-61-2-59-35zM48-53c0 20 12 33 32 33 41-3 63-29 60-74-43 2-92-5-92 41" id="B"/><path fill="#333" d="M210-169c-67 3-38 105-44 169h-31v-121c0-29-5-50-35-48C34-165 62-65 56 0H25l-1-190h30c1 10-1 24 2 32 10-44 99-50 107 0 11-21 27-35 58-36 85-2 47 119 55 194h-31v-121c0-29-5-49-35-48" id="C"/><path fill="#333" d="M115-194c53 0 69 39 70 98 0 66-23 100-70 100C84 3 66-7 56-30L54 0H23l1-261h32v101c10-23 28-34 59-34zm-8 174c40 0 45-34 45-75 0-40-5-75-45-74-42 0-51 32-51 76 0 43 10 73 51 73" id="D"/><path fill="#333" d="M85-194c31 0 48 13 60 33l-1-100h32l1 261h-30c-2-10 0-23-3-31C134-8 116 4 85 4 32 4 16-35 15-94c0-66 23-100 70-100zm9 24c-40 0-46 34-46 75 0 40 6 74 45 74 42 0 51-32 51-76 0-42-9-74-50-73" id="E"/><g id="c"><use transform="matrix(0.05,0,0,0.05,0,0)" xlink:href="#A"/><use transform="matrix(0.05,0,0,0.05,10,0)" xlink:href="#B"/><use transform="matrix(0.05,0,0,0.05,20,0)" xlink:href="#C"/><use transform="matrix(0.05,0,0,0.05,34.95,0)" xlink:href="#D"/><use transform="matrix(0.05,0,0,0.05,44.95,0)" xlink:href="#E"/><use transform="matrix(0.05,0,0,0.05,54.95,0)" xlink:href="#B"/></g><path fill="#333" d="M63-220v92h138v28H63V0H30v-248h175v28H63" id="F"/><path fill="#333" d="M84 4C-5 8 30-112 23-190h32v120c0 31 7 50 39 49 72-2 45-101 50-169h31l1 190h-30c-1-10 1-25-2-33-11 22-28 36-60 37" id="G"/><path fill="#333" d="M117-194c89-4 53 116 60 194h-32v-121c0-31-8-49-39-48C34-167 62-67 57 0H25l-1-190h30c1 10-1 24 2 32 11-22 29-35 61-36" id="H"/><path fill="#333" d="M96-169c-40 0-48 33-48 73s9 75 48 75c24 0 41-14 43-38l32 2c-6 37-31 61-74 61-59 0-76-41-82-99-10-93 101-131 147-64 4 7 5 14 7 22l-32 3c-4-21-16-35-41-35" id="I"/><path fill="#333" d="M59-47c-2 24 18 29 38 22v24C64 9 27 4 27-40v-127H5v-23h24l9-43h21v43h35v23H59v120" id="J"/><path fill="#333" d="M24-231v-30h32v30H24zM24 0v-190h32V0H24" id="K"/><path fill="#333" d="M100-194c62-1 85 37 85 99 1 63-27 99-86 99S16-35 15-95c0-66 28-99 85-99zM99-20c44 1 53-31 53-75 0-43-8-75-51-75s-53 32-53 75 10 74 51 75" id="L"/><g id="d"><use transform="matrix(0.05,0,0,0.05,0,0)" xlink:href="#F"/><use transform="matrix(0.05,0,0,0.05,10.950000000000001,0)" xlink:href="#G"/><use transform="matrix(0.05,0,0,0.05,20.950000000000003,0)" xlink:href="#H"/><use transform="matrix(0.05,0,0,0.05,30.950000000000003,0)" xlink:href="#I"/><use transform="matrix(0.05,0,0,0.05,39.95,0)" xlink:href="#J"/><use transform="matrix(0.05,0,0,0.05,44.95,0)" xlink:href="#K"/><use transform="matrix(0.05,0,0,0.05,48.900000000000006,0)" xlink:href="#L"/><use transform="matrix(0.05,0,0,0.05,58.900000000000006,0)" xlink:href="#H"/></g><path fill="#333" d="M205 0l-28-72H64L36 0H1l101-248h38L239 0h-34zm-38-99l-47-123c-12 45-31 82-46 123h93" id="M"/><path fill="#333" d="M9 0v-24l116-142H16v-24h144v24L44-24h123V0H9" id="N"/><g id="e"><use transform="matrix(0.05,0,0,0.05,0,0)" xlink:href="#M"/><use transform="matrix(0.05,0,0,0.05,12,0)" xlink:href="#C"/><use transform="matrix(0.05,0,0,0.05,26.950000000000003,0)" xlink:href="#B"/><use transform="matrix(0.05,0,0,0.05,36.95,0)" xlink:href="#N"/><use transform="matrix(0.05,0,0,0.05,45.95,0)" xlink:href="#L"/><use transform="matrix(0.05,0,0,0.05,55.95,0)" xlink:href="#H"/></g><path fill="#333" d="M30 0v-248h187v28H63v79h144v27H63v87h162V0H30" id="O"/><path fill="#333" d="M108 0H70L1-190h34L89-25l56-165h34" id="P"/><path fill="#333" d="M100-194c63 0 86 42 84 106H49c0 40 14 67 53 68 26 1 43-12 49-29l28 8c-11 28-37 45-77 45C44 4 14-33 15-96c1-61 26-98 85-98zm52 81c6-60-76-77-97-28-3 7-6 17-6 28h103" id="Q"/><path fill="#333" d="M160-131c35 5 61 23 61 61C221 17 115-2 30 0v-248c76 3 177-17 177 60 0 33-19 50-47 57zm-97-11c50-1 110 9 110-42 0-47-63-36-110-37v79zm0 115c55-2 124 14 124-45 0-56-70-42-124-44v89" id="R"/><path fill="#333" d="M114-163C36-179 61-72 57 0H25l-1-190h30c1 12-1 29 2 39 6-27 23-49 58-41v29" id="S"/><path fill="#333" d="M177-190C167-65 218 103 67 71c-23-6-38-20-44-43l32-5c15 47 100 32 89-28v-30C133-14 115 1 83 1 29 1 15-40 15-95c0-56 16-97 71-98 29-1 48 16 59 35 1-10 0-23 2-32h30zM94-22c36 0 50-32 50-73 0-42-14-75-50-75-39 0-46 34-46 75s6 73 46 73" id="T"/><g id="f"><use transform="matrix(0.05,0,0,0.05,0,0)" xlink:href="#O"/><use transform="matrix(0.05,0,0,0.05,12,0)" xlink:href="#P"/><use transform="matrix(0.05,0,0,0.05,21,0)" xlink:href="#Q"/><use transform="matrix(0.05,0,0,0.05,31,0)" xlink:href="#H"/><use transform="matrix(0.05,0,0,0.05,41,0)" xlink:href="#J"/><use transform="matrix(0.05,0,0,0.05,46,0)" xlink:href="#R"/><use transform="matrix(0.05,0,0,0.05,58,0)" xlink:href="#S"/><use transform="matrix(0.05,0,0,0.05,63.95,0)" xlink:href="#K"/><use transform="matrix(0.05,0,0,0.05,67.9,0)" xlink:href="#E"/><use transform="matrix(0.05,0,0,0.05,77.9,0)" xlink:href="#T"/><use transform="matrix(0.05,0,0,0.05,87.9,0)" xlink:href="#Q"/></g><path fill="#333" d="M185-189c-5-48-123-54-124 2 14 75 158 14 163 119 3 78-121 87-175 55-17-10-28-26-33-46l33-7c5 56 141 63 141-1 0-78-155-14-162-118-5-82 145-84 179-34 5 7 8 16 11 25" id="U"/><g id="g"><use transform="matrix(0.05,0,0,0.05,0,0)" xlink:href="#U"/><use transform="matrix(0.05,0,0,0.05,12,0)" xlink:href="#O"/><use transform="matrix(0.05,0,0,0.05,24,0)" xlink:href="#U"/></g><path d="M33 0v-248h34V0H33" id="V"/><path d="M135-143c-3-34-86-38-87 0 15 53 115 12 119 90S17 21 10-45l28-5c4 36 97 45 98 0-10-56-113-15-118-90-4-57 82-63 122-42 12 7 21 19 24 35" id="W"/><g id="h"><use transform="matrix(0.05,0,0,0.05,0,0)" xlink:href="#V"/><use transform="matrix(0.05,0,0,0.05,5,0)" xlink:href="#W"/></g><path d="M108 0H70L1-190h34L89-25l56-165h34" id="X"/><path d="M141-36C126-15 110 5 73 4 37 3 15-17 15-53c-1-64 63-63 125-63 3-35-9-54-41-54-24 1-41 7-42 31l-33-3c5-37 33-52 76-52 45 0 72 20 72 64v82c-1 20 7 32 28 27v20c-31 9-61-2-59-35zM48-53c0 20 12 33 32 33 41-3 63-29 60-74-43 2-92-5-92 41" id="Y"/><path d="M96-169c-40 0-48 33-48 73s9 75 48 75c24 0 41-14 43-38l32 2c-6 37-31 61-74 61-59 0-76-41-82-99-10-93 101-131 147-64 4 7 5 14 7 22l-32 3c-4-21-16-35-41-35" id="Z"/><path d="M24-231v-30h32v30H24zM24 0v-190h32V0H24" id="aa"/><path d="M117-194c89-4 53 116 60 194h-32v-121c0-31-8-49-39-48C34-167 62-67 57 0H25l-1-190h30c1 10-1 24 2 32 11-22 29-35 61-36" id="ab"/><path d="M100-194c63 0 86 42 84 106H49c0 40 14 67 53 68 26 1 43-12 49-29l28 8c-11 28-37 45-77 45C44 4 14-33 15-96c1-61 26-98 85-98zm52 81c6-60-76-77-97-28-3 7-6 17-6 28h103" id="ac"/><g id="i"><use transform="matrix(0.05,0,0,0.05,0,0)" xlink:href="#X"/><use transform="matrix(0.05,0,0,0.05,9,0)" xlink:href="#Y"/><use transform="matrix(0.05,0,0,0.05,19,0)" xlink:href="#Z"/><use transform="matrix(0.05,0,0,0.05,28,0)" xlink:href="#Z"/><use transform="matrix(0.05,0,0,0.05,37,0)" xlink:href="#aa"/><use transform="matrix(0.05,0,0,0.05,40.95,0)" xlink:href="#ab"/><use transform="matrix(0.05,0,0,0.05,50.95,0)" xlink:href="#ac"/></g><path d="M24 0v-261h32V0H24" id="ad"/><path d="M115-194c53 0 69 39 70 98 0 66-23 100-70 100C84 3 66-7 56-30L54 0H23l1-261h32v101c10-23 28-34 59-34zm-8 174c40 0 45-34 45-75 0-40-5-75-45-74-42 0-51 32-51 76 0 43 10 73 51 73" id="ae"/><g id="j"><use transform="matrix(0.05,0,0,0.05,0,0)" xlink:href="#Y"/><use transform="matrix(0.05,0,0,0.05,10,0)" xlink:href="#X"/><use transform="matrix(0.05,0,0,0.05,19,0)" xlink:href="#Y"/><use transform="matrix(0.05,0,0,0.05,29,0)" xlink:href="#aa"/><use transform="matrix(0.05,0,0,0.05,32.95,0)" xlink:href="#ad"/><use transform="matrix(0.05,0,0,0.05,36.900000000000006,0)" xlink:href="#Y"/><use transform="matrix(0.05,0,0,0.05,46.900000000000006,0)" xlink:href="#ae"/><use transform="matrix(0.05,0,0,0.05,56.900000000000006,0)" xlink:href="#ad"/><use transform="matrix(0.05,0,0,0.05,60.85,0)" xlink:href="#ac"/></g><path d="M101-234c-31-9-42 10-38 44h38v23H63V0H32v-167H5v-23h27c-7-52 17-82 69-68v24" id="af"/><path d="M100-194c62-1 85 37 85 99 1 63-27 99-86 99S16-35 15-95c0-66 28-99 85-99zM99-20c44 1 53-31 53-75 0-43-8-75-51-75s-53 32-53 75 10 74 51 75" id="ag"/><path d="M114-163C36-179 61-72 57 0H25l-1-190h30c1 12-1 29 2 39 6-27 23-49 58-41v29" id="ah"/><g id="k"><use transform="matrix(0.05,0,0,0.05,0,0)" xlink:href="#af"/><use transform="matrix(0.05,0,0,0.05,5,0)" xlink:href="#ag"/><use transform="matrix(0.05,0,0,0.05,15,0)" xlink:href="#ah"/></g><path d="M27 0v-27h64v-190l-56 39v-29l58-41h29v221h61V0H27" id="ai"/><path d="M134-131c28 9 52 24 51 62-1 50-34 73-85 73S17-19 16-69c0-36 21-54 49-61-75-25-45-126 34-121 46 3 78 18 79 63 0 33-17 51-44 57zm-34-11c31 1 46-15 46-44 0-28-17-43-47-42-29 0-46 13-45 42 1 28 16 44 46 44zm1 122c35 0 51-18 51-52 0-30-18-46-53-46-33 0-51 17-51 47 0 34 19 51 53 51" id="aj"/><path d="M118-107v75H92v-75H18v-26h74v-75h26v75h74v26h-74" id="ak"/><g id="l"><use transform="matrix(0.05,0,0,0.05,0,0)" xlink:href="#ai"/><use transform="matrix(0.05,0,0,0.05,10,0)" xlink:href="#aj"/><use transform="matrix(0.05,0,0,0.05,20,0)" xlink:href="#ak"/></g><g id="m"><use transform="matrix(0.05,0,0,0.05,0,0)" xlink:href="#aa"/><use transform="matrix(0.05,0,0,0.05,3.95,0)" xlink:href="#ab"/></g><path d="M212-179c-10-28-35-45-73-45-59 0-87 40-87 99 0 60 29 101 89 101 43 0 62-24 78-52l27 14C228-24 195 4 139 4 59 4 22-46 18-125c-6-104 99-153 187-111 19 9 31 26 39 46" id="al"/><path d="M106-169C34-169 62-67 57 0H25v-261h32l-1 103c12-21 28-36 61-36 89 0 53 116 60 194h-32v-121c2-32-8-49-39-48" id="am"/><g id="n"><use transform="matrix(0.05,0,0,0.05,0,0)" xlink:href="#al"/><use transform="matrix(0.05,0,0,0.05,12.950000000000001,0)" xlink:href="#am"/><use transform="matrix(0.05,0,0,0.05,22.950000000000003,0)" xlink:href="#ac"/><use transform="matrix(0.05,0,0,0.05,32.95,0)" xlink:href="#ab"/><use transform="matrix(0.05,0,0,0.05,42.95,0)" xlink:href="#ab"/><use transform="matrix(0.05,0,0,0.05,52.95,0)" xlink:href="#Y"/><use transform="matrix(0.05,0,0,0.05,62.95,0)" xlink:href="#aa"/></g><path d="M30 0v-248h187v28H63v79h144v27H63v87h162V0H30" id="an"/><path d="M179-190L93 31C79 59 56 82 12 73V49c39 6 53-20 64-50L1-190h34L92-34l54-156h33" id="ao"/><g id="o"><use transform="matrix(0.0685185185185185,0,0,0.0685185185185185,0,0)" xlink:href="#an"/><use transform="matrix(0.0685185185185185,0,0,0.0685185185185185,16.444444444444443,0)" xlink:href="#X"/><use transform="matrix(0.0685185185185185,0,0,0.0685185185185185,28.77777777777777,0)" xlink:href="#ac"/><use transform="matrix(0.0685185185185185,0,0,0.0685185185185185,42.481481481481474,0)" xlink:href="#ah"/><use transform="matrix(0.0685185185185185,0,0,0.0685185185185185,50.63518518518518,0)" xlink:href="#ao"/></g><path d="M126-127c33 6 58 20 58 59 0 88-139 92-164 29-3-8-5-16-6-25l32-3c6 27 21 44 54 44 32 0 52-15 52-46 0-38-36-46-79-43v-28c39 1 72-4 72-42 0-27-17-43-46-43-28 0-47 15-49 41l-32-3c6-42 35-63 81-64 48-1 79 21 79 65 0 36-21 52-52 59" id="ap"/><path d="M101-251c68 0 85 55 85 127S166 4 100 4C33 4 14-52 14-124c0-73 17-127 87-127zm-1 229c47 0 54-49 54-102s-4-102-53-102c-51 0-55 48-55 102 0 53 5 102 54 102" id="aq"/><g id="p"><use transform="matrix(0.0685185185185185,0,0,0.0685185185185185,0,0)" xlink:href="#ap"/><use transform="matrix(0.0685185185185185,0,0,0.0685185185185185,13.7037037037037,0)" xlink:href="#aq"/></g><path d="M210-169c-67 3-38 105-44 169h-31v-121c0-29-5-50-35-48C34-165 62-65 56 0H25l-1-190h30c1 10-1 24 2 32 10-44 99-50 107 0 11-21 27-35 58-36 85-2 47 119 55 194h-31v-121c0-29-5-49-35-48" id="ar"/><path d="M84 4C-5 8 30-112 23-190h32v120c0 31 7 50 39 49 72-2 45-101 50-169h31l1 190h-30c-1-10 1-25-2-33-11 22-28 36-60 37" id="as"/><path d="M59-47c-2 24 18 29 38 22v24C64 9 27 4 27-40v-127H5v-23h24l9-43h21v43h35v23H59v120" id="at"/><g id="q"><use transform="matrix(0.0685185185185185,0,0,0.0685185185185185,0,0)" xlink:href="#ar"/><use transform="matrix(0.0685185185185185,0,0,0.0685185185185185,20.487037037037034,0)" xlink:href="#aa"/><use transform="matrix(0.0685185185185185,0,0,0.0685185185185185,25.899999999999995,0)" xlink:href="#ab"/><use transform="matrix(0.0685185185185185,0,0,0.0685185185185185,39.603703703703694,0)" xlink:href="#as"/><use transform="matrix(0.0685185185185185,0,0,0.0685185185185185,53.307407407407396,0)" xlink:href="#at"/><use transform="matrix(0.0685185185185185,0,0,0.0685185185185185,60.159259259259244,0)" xlink:href="#ac"/><use transform="matrix(0.0685185185185185,0,0,0.0685185185185185,73.86296296296294,0)" xlink:href="#W"/></g><path d="M137-103V0h-34v-103L8-248h37l75 118 75-118h37" id="au"/><g id="r"><use transform="matrix(0.0685185185185185,0,0,0.0685185185185185,0,0)" xlink:href="#au"/><use transform="matrix(0.0685185185185185,0,0,0.0685185185185185,14.18333333333333,0)" xlink:href="#ac"/><use transform="matrix(0.0685185185185185,0,0,0.0685185185185185,27.887037037037032,0)" xlink:href="#W"/></g></defs></g></svg>